<mxfile host="app.diagrams.net" modified="2022-06-01T17:55:29.125Z" agent="5.0 (Macintosh; Intel Mac OS X 10_15_7) AppleWebKit/537.36 (KHTML, like Gecko) Chrome/102.0.5005.61 Safari/537.36" etag="PblTqYdQgD2MDw3O7aaR" version="18.2.0" type="github" pages="5">
  <diagram id="sEUVZKZ76jV4qungrJdS" name="Page-1">
    <mxGraphModel dx="744" dy="1683" grid="1" gridSize="10" guides="1" tooltips="1" connect="1" arrows="1" fold="1" page="1" pageScale="1" pageWidth="827" pageHeight="1169" math="0" shadow="0">
      <root>
        <mxCell id="0" />
        <mxCell id="1" parent="0" />
        <mxCell id="Meh-S_uBkcgogQDJDted-1" value="Sofie&lt;br&gt;(ego)" style="ellipse;whiteSpace=wrap;html=1;aspect=fixed;fillColor=none;" parent="1" vertex="1">
          <mxGeometry x="320" y="210" width="60" height="60" as="geometry" />
        </mxCell>
        <mxCell id="Meh-S_uBkcgogQDJDted-2" value="Alter 1" style="ellipse;whiteSpace=wrap;html=1;aspect=fixed;fillColor=none;" parent="1" vertex="1">
          <mxGeometry x="260" y="30" width="60" height="60" as="geometry" />
        </mxCell>
        <mxCell id="Meh-S_uBkcgogQDJDted-3" value="Alter 12" style="ellipse;whiteSpace=wrap;html=1;aspect=fixed;fillColor=none;" parent="1" vertex="1">
          <mxGeometry x="170" y="80" width="60" height="60" as="geometry" />
        </mxCell>
        <mxCell id="Meh-S_uBkcgogQDJDted-4" value="Alter 11" style="ellipse;whiteSpace=wrap;html=1;aspect=fixed;fillColor=none;" parent="1" vertex="1">
          <mxGeometry x="130" y="180" width="60" height="60" as="geometry" />
        </mxCell>
        <mxCell id="Meh-S_uBkcgogQDJDted-5" value="Alter 9" style="ellipse;whiteSpace=wrap;html=1;aspect=fixed;fillColor=none;" parent="1" vertex="1">
          <mxGeometry x="220" y="360" width="60" height="60" as="geometry" />
        </mxCell>
        <mxCell id="Meh-S_uBkcgogQDJDted-6" value="Alter 7" style="ellipse;whiteSpace=wrap;html=1;aspect=fixed;fillColor=none;" parent="1" vertex="1">
          <mxGeometry x="420" y="370" width="60" height="60" as="geometry" />
        </mxCell>
        <mxCell id="Meh-S_uBkcgogQDJDted-7" value="Alter 5" style="ellipse;whiteSpace=wrap;html=1;aspect=fixed;fillColor=none;" parent="1" vertex="1">
          <mxGeometry x="530" y="220" width="60" height="60" as="geometry" />
        </mxCell>
        <mxCell id="Meh-S_uBkcgogQDJDted-8" value="Alter 3" style="ellipse;whiteSpace=wrap;html=1;aspect=fixed;fillColor=none;" parent="1" vertex="1">
          <mxGeometry x="450" y="60" width="60" height="60" as="geometry" />
        </mxCell>
        <mxCell id="Meh-S_uBkcgogQDJDted-10" value="" style="endArrow=none;html=1;rounded=0;exitX=0.983;exitY=0.383;exitDx=0;exitDy=0;exitPerimeter=0;entryX=0;entryY=0.5;entryDx=0;entryDy=0;" parent="1" source="Meh-S_uBkcgogQDJDted-4" target="Meh-S_uBkcgogQDJDted-1" edge="1">
          <mxGeometry width="50" height="50" relative="1" as="geometry">
            <mxPoint x="220" y="270" as="sourcePoint" />
            <mxPoint x="300" y="250" as="targetPoint" />
          </mxGeometry>
        </mxCell>
        <mxCell id="Meh-S_uBkcgogQDJDted-11" value="" style="endArrow=none;html=1;rounded=0;exitX=1;exitY=1;exitDx=0;exitDy=0;entryX=0;entryY=0;entryDx=0;entryDy=0;" parent="1" source="Meh-S_uBkcgogQDJDted-1" target="Meh-S_uBkcgogQDJDted-6" edge="1">
          <mxGeometry width="50" height="50" relative="1" as="geometry">
            <mxPoint x="360" y="322.98" as="sourcePoint" />
            <mxPoint x="491.02" y="300" as="targetPoint" />
          </mxGeometry>
        </mxCell>
        <mxCell id="Meh-S_uBkcgogQDJDted-12" value="" style="endArrow=none;html=1;rounded=0;exitX=0.5;exitY=1;exitDx=0;exitDy=0;entryX=0.5;entryY=0;entryDx=0;entryDy=0;" parent="1" source="Meh-S_uBkcgogQDJDted-2" target="Meh-S_uBkcgogQDJDted-1" edge="1">
          <mxGeometry width="50" height="50" relative="1" as="geometry">
            <mxPoint x="282" y="170" as="sourcePoint" />
            <mxPoint x="413.02" y="147.01999999999998" as="targetPoint" />
          </mxGeometry>
        </mxCell>
        <mxCell id="Meh-S_uBkcgogQDJDted-13" value="" style="endArrow=none;html=1;rounded=0;exitX=1;exitY=0.5;exitDx=0;exitDy=0;entryX=0;entryY=0.5;entryDx=0;entryDy=0;" parent="1" source="Meh-S_uBkcgogQDJDted-1" target="Meh-S_uBkcgogQDJDted-7" edge="1">
          <mxGeometry width="50" height="50" relative="1" as="geometry">
            <mxPoint x="368.98" y="270" as="sourcePoint" />
            <mxPoint x="500" y="247.02" as="targetPoint" />
          </mxGeometry>
        </mxCell>
        <mxCell id="Meh-S_uBkcgogQDJDted-14" value="" style="endArrow=none;html=1;rounded=0;exitX=1;exitY=0;exitDx=0;exitDy=0;entryX=0;entryY=1;entryDx=0;entryDy=0;" parent="1" source="Meh-S_uBkcgogQDJDted-1" target="Meh-S_uBkcgogQDJDted-8" edge="1">
          <mxGeometry width="50" height="50" relative="1" as="geometry">
            <mxPoint x="340" y="162.98000000000002" as="sourcePoint" />
            <mxPoint x="470" y="140" as="targetPoint" />
          </mxGeometry>
        </mxCell>
        <mxCell id="Meh-S_uBkcgogQDJDted-15" value="" style="endArrow=none;html=1;rounded=0;entryX=0;entryY=0;entryDx=0;entryDy=0;exitX=1;exitY=1;exitDx=0;exitDy=0;" parent="1" source="Meh-S_uBkcgogQDJDted-3" target="Meh-S_uBkcgogQDJDted-1" edge="1">
          <mxGeometry width="50" height="50" relative="1" as="geometry">
            <mxPoint x="200" y="150" as="sourcePoint" />
            <mxPoint x="341.02" y="160" as="targetPoint" />
          </mxGeometry>
        </mxCell>
        <mxCell id="Meh-S_uBkcgogQDJDted-16" value="" style="endArrow=none;html=1;rounded=0;exitX=1;exitY=0;exitDx=0;exitDy=0;" parent="1" source="Meh-S_uBkcgogQDJDted-5" target="Meh-S_uBkcgogQDJDted-1" edge="1">
          <mxGeometry width="50" height="50" relative="1" as="geometry">
            <mxPoint x="290" y="370" as="sourcePoint" />
            <mxPoint x="340" y="270" as="targetPoint" />
          </mxGeometry>
        </mxCell>
        <mxCell id="TdS6LpB3P8GU0slqAmAr-1" value="Alter 2" style="ellipse;whiteSpace=wrap;html=1;aspect=fixed;fillColor=none;" parent="1" vertex="1">
          <mxGeometry x="360" y="30" width="60" height="60" as="geometry" />
        </mxCell>
        <mxCell id="TdS6LpB3P8GU0slqAmAr-3" value="Alter 10" style="ellipse;whiteSpace=wrap;html=1;aspect=fixed;fillColor=none;" parent="1" vertex="1">
          <mxGeometry x="140" y="280" width="60" height="60" as="geometry" />
        </mxCell>
        <mxCell id="TdS6LpB3P8GU0slqAmAr-4" value="Alter 8" style="ellipse;whiteSpace=wrap;html=1;aspect=fixed;fillColor=none;" parent="1" vertex="1">
          <mxGeometry x="320" y="380" width="60" height="60" as="geometry" />
        </mxCell>
        <mxCell id="TdS6LpB3P8GU0slqAmAr-5" value="Alter 6" style="ellipse;whiteSpace=wrap;html=1;aspect=fixed;fillColor=none;" parent="1" vertex="1">
          <mxGeometry x="490" y="310" width="60" height="60" as="geometry" />
        </mxCell>
        <mxCell id="TdS6LpB3P8GU0slqAmAr-6" value="Alter 4" style="ellipse;whiteSpace=wrap;html=1;aspect=fixed;fillColor=none;" parent="1" vertex="1">
          <mxGeometry x="510" y="130" width="60" height="60" as="geometry" />
        </mxCell>
        <mxCell id="TdS6LpB3P8GU0slqAmAr-7" value="" style="endArrow=none;html=1;rounded=0;entryX=0;entryY=1;entryDx=0;entryDy=0;exitX=0.983;exitY=0.342;exitDx=0;exitDy=0;exitPerimeter=0;" parent="1" source="TdS6LpB3P8GU0slqAmAr-3" target="Meh-S_uBkcgogQDJDted-1" edge="1">
          <mxGeometry width="50" height="50" relative="1" as="geometry">
            <mxPoint x="240.0032034355964" y="339.9967965644036" as="sourcePoint" />
            <mxPoint x="288.79" y="241.21" as="targetPoint" />
          </mxGeometry>
        </mxCell>
        <mxCell id="TdS6LpB3P8GU0slqAmAr-14" value="" style="endArrow=none;html=1;rounded=0;entryX=0;entryY=0;entryDx=0;entryDy=0;" parent="1" source="Meh-S_uBkcgogQDJDted-1" target="TdS6LpB3P8GU0slqAmAr-5" edge="1">
          <mxGeometry width="50" height="50" relative="1" as="geometry">
            <mxPoint x="380" y="250" as="sourcePoint" />
            <mxPoint x="431.57679656440365" y="339.9967965644036" as="targetPoint" />
          </mxGeometry>
        </mxCell>
        <mxCell id="TdS6LpB3P8GU0slqAmAr-15" value="" style="endArrow=none;html=1;rounded=0;entryX=0.5;entryY=0;entryDx=0;entryDy=0;" parent="1" source="Meh-S_uBkcgogQDJDted-1" target="TdS6LpB3P8GU0slqAmAr-4" edge="1">
          <mxGeometry width="50" height="50" relative="1" as="geometry">
            <mxPoint x="362.0032034355964" y="270.0032034355964" as="sourcePoint" />
            <mxPoint x="413.57679656440365" y="357.57679656440365" as="targetPoint" />
          </mxGeometry>
        </mxCell>
        <mxCell id="TdS6LpB3P8GU0slqAmAr-16" value="" style="endArrow=none;html=1;rounded=0;entryX=0;entryY=0.5;entryDx=0;entryDy=0;" parent="1" source="Meh-S_uBkcgogQDJDted-1" target="TdS6LpB3P8GU0slqAmAr-6" edge="1">
          <mxGeometry width="50" height="50" relative="1" as="geometry">
            <mxPoint x="381.21320343559637" y="228.78679656440363" as="sourcePoint" />
            <mxPoint x="478.78679656440363" y="151.21320343559637" as="targetPoint" />
          </mxGeometry>
        </mxCell>
        <mxCell id="TdS6LpB3P8GU0slqAmAr-17" value="" style="endArrow=none;html=1;rounded=0;exitX=0.283;exitY=0.958;exitDx=0;exitDy=0;exitPerimeter=0;" parent="1" source="TdS6LpB3P8GU0slqAmAr-1" target="Meh-S_uBkcgogQDJDted-1" edge="1">
          <mxGeometry width="50" height="50" relative="1" as="geometry">
            <mxPoint x="400" y="120" as="sourcePoint" />
            <mxPoint x="433.5" y="210" as="targetPoint" />
          </mxGeometry>
        </mxCell>
        <mxCell id="wDxX4Bd2kpGMS_07ofQB-1" value="" style="ellipse;whiteSpace=wrap;html=1;aspect=fixed;fillColor=none;strokeWidth=2;" parent="1" vertex="1">
          <mxGeometry x="70" y="-40" width="560" height="560" as="geometry" />
        </mxCell>
      </root>
    </mxGraphModel>
  </diagram>
  <diagram id="xAQgtF3ZSAwmDNwnyqJ3" name="Page-2">
    <mxGraphModel dx="744" dy="514" grid="1" gridSize="10" guides="1" tooltips="1" connect="1" arrows="1" fold="1" page="1" pageScale="1" pageWidth="827" pageHeight="1169" math="0" shadow="0">
      <root>
        <mxCell id="0" />
        <mxCell id="1" parent="0" />
        <mxCell id="OJhPwIWRGvSBcY4_z3Xv-12" value="" style="ellipse;whiteSpace=wrap;html=1;aspect=fixed;fillColor=none;strokeWidth=2;" parent="1" vertex="1">
          <mxGeometry x="140" y="250" width="700" height="700" as="geometry" />
        </mxCell>
        <mxCell id="OJhPwIWRGvSBcY4_z3Xv-13" value="&lt;font style=&quot;font-size: 18px;&quot;&gt;Sofie&lt;br&gt;(ego)&lt;/font&gt;" style="ellipse;whiteSpace=wrap;html=1;aspect=fixed;fillColor=none;strokeWidth=2;" parent="1" vertex="1">
          <mxGeometry x="450" y="560" width="80" height="80" as="geometry" />
        </mxCell>
        <mxCell id="OJhPwIWRGvSBcY4_z3Xv-14" value="" style="endArrow=none;html=1;rounded=0;exitX=0;exitY=0.5;exitDx=0;exitDy=0;strokeWidth=2;" parent="1" source="OJhPwIWRGvSBcY4_z3Xv-13" target="OJhPwIWRGvSBcY4_z3Xv-12" edge="1">
          <mxGeometry width="50" height="50" relative="1" as="geometry">
            <mxPoint x="460" y="610" as="sourcePoint" />
            <mxPoint x="510" y="560" as="targetPoint" />
          </mxGeometry>
        </mxCell>
        <mxCell id="OJhPwIWRGvSBcY4_z3Xv-15" value="" style="endArrow=none;html=1;rounded=0;exitX=0.5;exitY=1;exitDx=0;exitDy=0;entryX=0.448;entryY=1;entryDx=0;entryDy=0;entryPerimeter=0;strokeWidth=2;" parent="1" source="OJhPwIWRGvSBcY4_z3Xv-13" target="OJhPwIWRGvSBcY4_z3Xv-12" edge="1">
          <mxGeometry width="50" height="50" relative="1" as="geometry">
            <mxPoint x="470" y="680" as="sourcePoint" />
            <mxPoint x="160.00000000000068" y="680" as="targetPoint" />
          </mxGeometry>
        </mxCell>
        <mxCell id="OJhPwIWRGvSBcY4_z3Xv-16" value="" style="endArrow=none;html=1;rounded=0;entryX=0;entryY=0;entryDx=0;entryDy=0;exitX=0.227;exitY=0.081;exitDx=0;exitDy=0;exitPerimeter=0;strokeWidth=2;" parent="1" source="OJhPwIWRGvSBcY4_z3Xv-12" target="OJhPwIWRGvSBcY4_z3Xv-13" edge="1">
          <mxGeometry width="50" height="50" relative="1" as="geometry">
            <mxPoint x="500" y="260" as="sourcePoint" />
            <mxPoint x="465.70000000000005" y="572.0999999999997" as="targetPoint" />
          </mxGeometry>
        </mxCell>
        <mxCell id="OJhPwIWRGvSBcY4_z3Xv-18" value="" style="endArrow=none;html=1;rounded=0;entryX=1;entryY=0;entryDx=0;entryDy=0;strokeWidth=2;" parent="1" source="OJhPwIWRGvSBcY4_z3Xv-12" target="OJhPwIWRGvSBcY4_z3Xv-13" edge="1">
          <mxGeometry width="50" height="50" relative="1" as="geometry">
            <mxPoint x="363.1999999999999" y="294.6" as="sourcePoint" />
            <mxPoint x="530" y="559.9999999999997" as="targetPoint" />
          </mxGeometry>
        </mxCell>
        <mxCell id="OJhPwIWRGvSBcY4_z3Xv-19" value="" style="endArrow=none;html=1;rounded=0;entryX=0.971;entryY=0.666;entryDx=0;entryDy=0;entryPerimeter=0;exitX=0.227;exitY=0.081;exitDx=0;exitDy=0;exitPerimeter=0;strokeWidth=2;" parent="1" target="OJhPwIWRGvSBcY4_z3Xv-12" edge="1">
          <mxGeometry width="50" height="50" relative="1" as="geometry">
            <mxPoint x="529.9999999999999" y="610" as="sourcePoint" />
            <mxPoint x="696.8000000000001" y="875.3999999999996" as="targetPoint" />
          </mxGeometry>
        </mxCell>
        <mxCell id="OJhPwIWRGvSBcY4_z3Xv-20" value="&lt;font style=&quot;font-size: 18px;&quot;&gt;Familj&lt;/font&gt;" style="text;html=1;align=center;verticalAlign=middle;resizable=0;points=[];autosize=1;strokeColor=none;fillColor=none;" parent="1" vertex="1">
          <mxGeometry x="505" y="230" width="60" height="20" as="geometry" />
        </mxCell>
        <mxCell id="OJhPwIWRGvSBcY4_z3Xv-21" value="&lt;font style=&quot;font-size: 18px;&quot;&gt;Vän/granne/övrigt&lt;/font&gt;" style="text;html=1;align=center;verticalAlign=middle;resizable=0;points=[];autosize=1;strokeColor=none;fillColor=none;" parent="1" vertex="1">
          <mxGeometry x="110" y="320" width="160" height="20" as="geometry" />
        </mxCell>
        <mxCell id="OJhPwIWRGvSBcY4_z3Xv-22" value="&lt;font style=&quot;font-size: 18px;&quot;&gt;Släkt&lt;/font&gt;" style="text;html=1;align=center;verticalAlign=middle;resizable=0;points=[];autosize=1;strokeColor=none;fillColor=none;" parent="1" vertex="1">
          <mxGeometry x="790" y="410" width="60" height="20" as="geometry" />
        </mxCell>
        <mxCell id="OJhPwIWRGvSBcY4_z3Xv-23" value="&lt;font style=&quot;font-size: 18px;&quot;&gt;Jobb/skola&lt;/font&gt;" style="text;html=1;align=center;verticalAlign=middle;resizable=0;points=[];autosize=1;strokeColor=none;fillColor=none;" parent="1" vertex="1">
          <mxGeometry x="750" y="820" width="100" height="20" as="geometry" />
        </mxCell>
        <mxCell id="OJhPwIWRGvSBcY4_z3Xv-24" value="&lt;font style=&quot;font-size: 18px;&quot;&gt;Yrkeshjälp/myndighet&lt;/font&gt;" style="text;html=1;align=center;verticalAlign=middle;resizable=0;points=[];autosize=1;strokeColor=none;fillColor=none;" parent="1" vertex="1">
          <mxGeometry x="240" y="940" width="190" height="20" as="geometry" />
        </mxCell>
        <mxCell id="OJhPwIWRGvSBcY4_z3Xv-26" value="A9" style="ellipse;whiteSpace=wrap;html=1;aspect=fixed;fontSize=18;fillColor=none;" parent="1" vertex="1">
          <mxGeometry x="490" y="680" width="50" height="50" as="geometry" />
        </mxCell>
        <mxCell id="OJhPwIWRGvSBcY4_z3Xv-34" value="A6" style="ellipse;whiteSpace=wrap;html=1;aspect=fixed;fontSize=18;fillColor=none;" parent="1" vertex="1">
          <mxGeometry x="580" y="525" width="50" height="50" as="geometry" />
        </mxCell>
        <mxCell id="OJhPwIWRGvSBcY4_z3Xv-35" value="A5" style="ellipse;whiteSpace=wrap;html=1;aspect=fixed;fontSize=18;fillColor=none;" parent="1" vertex="1">
          <mxGeometry x="620" y="345" width="50" height="50" as="geometry" />
        </mxCell>
        <mxCell id="OJhPwIWRGvSBcY4_z3Xv-36" value="A4" style="ellipse;whiteSpace=wrap;html=1;aspect=fixed;fontSize=18;fillColor=none;" parent="1" vertex="1">
          <mxGeometry x="490" y="460" width="50" height="50" as="geometry" />
        </mxCell>
        <mxCell id="OJhPwIWRGvSBcY4_z3Xv-37" value="A10" style="ellipse;whiteSpace=wrap;html=1;aspect=fixed;fontSize=18;fillColor=none;" parent="1" vertex="1">
          <mxGeometry x="389" y="630" width="50" height="50" as="geometry" />
        </mxCell>
        <mxCell id="OJhPwIWRGvSBcY4_z3Xv-38" value="A11" style="ellipse;whiteSpace=wrap;html=1;aspect=fixed;fontSize=18;fillColor=none;" parent="1" vertex="1">
          <mxGeometry x="240" y="395" width="50" height="50" as="geometry" />
        </mxCell>
        <mxCell id="OJhPwIWRGvSBcY4_z3Xv-39" value="A3" style="ellipse;whiteSpace=wrap;html=1;aspect=fixed;fontSize=18;fillColor=none;" parent="1" vertex="1">
          <mxGeometry x="420" y="380" width="50" height="50" as="geometry" />
        </mxCell>
        <mxCell id="OJhPwIWRGvSBcY4_z3Xv-40" value="A1" style="ellipse;whiteSpace=wrap;html=1;aspect=fixed;fontSize=18;fillColor=none;" parent="1" vertex="1">
          <mxGeometry x="370" y="300" width="50" height="50" as="geometry" />
        </mxCell>
        <mxCell id="OJhPwIWRGvSBcY4_z3Xv-42" value="A7" style="ellipse;whiteSpace=wrap;html=1;aspect=fixed;fontSize=18;fillColor=none;" parent="1" vertex="1">
          <mxGeometry x="600" y="585" width="50" height="50" as="geometry" />
        </mxCell>
        <mxCell id="OJhPwIWRGvSBcY4_z3Xv-43" value="A2" style="ellipse;whiteSpace=wrap;html=1;aspect=fixed;fontSize=18;fillColor=none;" parent="1" vertex="1">
          <mxGeometry x="530" y="310" width="50" height="50" as="geometry" />
        </mxCell>
        <mxCell id="OJhPwIWRGvSBcY4_z3Xv-44" value="A8" style="ellipse;whiteSpace=wrap;html=1;aspect=fixed;fontSize=18;fillColor=none;" parent="1" vertex="1">
          <mxGeometry x="570" y="660" width="50" height="50" as="geometry" />
        </mxCell>
        <mxCell id="OJhPwIWRGvSBcY4_z3Xv-45" value="A12" style="ellipse;whiteSpace=wrap;html=1;aspect=fixed;fontSize=18;fillColor=none;" parent="1" vertex="1">
          <mxGeometry x="371" y="535" width="50" height="50" as="geometry" />
        </mxCell>
        <mxCell id="OJhPwIWRGvSBcY4_z3Xv-47" value="" style="endArrow=none;html=1;rounded=0;fontSize=18;" parent="1" source="OJhPwIWRGvSBcY4_z3Xv-39" target="OJhPwIWRGvSBcY4_z3Xv-43" edge="1">
          <mxGeometry width="50" height="50" relative="1" as="geometry">
            <mxPoint x="460" y="660" as="sourcePoint" />
            <mxPoint x="510" y="610" as="targetPoint" />
          </mxGeometry>
        </mxCell>
        <mxCell id="OJhPwIWRGvSBcY4_z3Xv-48" value="" style="endArrow=none;html=1;rounded=0;fontSize=18;entryX=0;entryY=0;entryDx=0;entryDy=0;exitX=1;exitY=1;exitDx=0;exitDy=0;" parent="1" source="OJhPwIWRGvSBcY4_z3Xv-40" target="OJhPwIWRGvSBcY4_z3Xv-39" edge="1">
          <mxGeometry width="50" height="50" relative="1" as="geometry">
            <mxPoint x="402.20153719330244" y="346.59811269517104" as="sourcePoint" />
            <mxPoint x="469.99728553876287" y="303.40855063395543" as="targetPoint" />
          </mxGeometry>
        </mxCell>
        <mxCell id="OJhPwIWRGvSBcY4_z3Xv-49" value="" style="endArrow=none;html=1;rounded=0;fontSize=18;exitX=1;exitY=0.5;exitDx=0;exitDy=0;entryX=0;entryY=0.5;entryDx=0;entryDy=0;" parent="1" source="OJhPwIWRGvSBcY4_z3Xv-39" target="OJhPwIWRGvSBcY4_z3Xv-35" edge="1">
          <mxGeometry width="50" height="50" relative="1" as="geometry">
            <mxPoint x="486.09153719330243" y="411.57811269517106" as="sourcePoint" />
            <mxPoint x="553.8872855387629" y="368.38855063395545" as="targetPoint" />
          </mxGeometry>
        </mxCell>
        <mxCell id="OJhPwIWRGvSBcY4_z3Xv-50" value="" style="endArrow=none;html=1;rounded=0;fontSize=18;exitX=0.5;exitY=1;exitDx=0;exitDy=0;entryX=0.5;entryY=0;entryDx=0;entryDy=0;" parent="1" source="OJhPwIWRGvSBcY4_z3Xv-43" target="OJhPwIWRGvSBcY4_z3Xv-36" edge="1">
          <mxGeometry width="50" height="50" relative="1" as="geometry">
            <mxPoint x="460" y="660" as="sourcePoint" />
            <mxPoint x="510" y="610" as="targetPoint" />
          </mxGeometry>
        </mxCell>
        <mxCell id="OJhPwIWRGvSBcY4_z3Xv-51" value="" style="endArrow=none;html=1;rounded=0;fontSize=18;exitX=1;exitY=1;exitDx=0;exitDy=0;entryX=0.5;entryY=0;entryDx=0;entryDy=0;" parent="1" source="OJhPwIWRGvSBcY4_z3Xv-34" target="OJhPwIWRGvSBcY4_z3Xv-42" edge="1">
          <mxGeometry width="50" height="50" relative="1" as="geometry">
            <mxPoint x="460" y="660" as="sourcePoint" />
            <mxPoint x="510" y="610" as="targetPoint" />
          </mxGeometry>
        </mxCell>
        <mxCell id="OJhPwIWRGvSBcY4_z3Xv-52" value="" style="endArrow=none;html=1;rounded=0;fontSize=18;exitX=0;exitY=0.5;exitDx=0;exitDy=0;entryX=1;entryY=0.5;entryDx=0;entryDy=0;" parent="1" source="OJhPwIWRGvSBcY4_z3Xv-44" target="OJhPwIWRGvSBcY4_z3Xv-26" edge="1">
          <mxGeometry width="50" height="50" relative="1" as="geometry">
            <mxPoint x="460" y="660" as="sourcePoint" />
            <mxPoint x="510" y="610" as="targetPoint" />
          </mxGeometry>
        </mxCell>
        <mxCell id="OJhPwIWRGvSBcY4_z3Xv-53" value="" style="endArrow=none;html=1;rounded=0;fontSize=18;exitX=0;exitY=0;exitDx=0;exitDy=0;entryX=1;entryY=1;entryDx=0;entryDy=0;" parent="1" source="OJhPwIWRGvSBcY4_z3Xv-34" target="OJhPwIWRGvSBcY4_z3Xv-36" edge="1">
          <mxGeometry width="50" height="50" relative="1" as="geometry">
            <mxPoint x="460" y="660" as="sourcePoint" />
            <mxPoint x="510" y="610" as="targetPoint" />
          </mxGeometry>
        </mxCell>
        <mxCell id="yX1-AaqTFnp3ZDT0smlc-18" value="" style="ellipse;whiteSpace=wrap;html=1;aspect=fixed;fontSize=18;strokeColor=#FF0000;strokeWidth=2;fillColor=none;" parent="1" vertex="1">
          <mxGeometry x="327.5" y="437.5" width="325" height="325" as="geometry" />
        </mxCell>
      </root>
    </mxGraphModel>
  </diagram>
  <diagram id="yOEwmFU_q9hNJ3GRZem6" name="Page-3">
    <mxGraphModel dx="744" dy="514" grid="1" gridSize="10" guides="1" tooltips="1" connect="1" arrows="1" fold="1" page="1" pageScale="1" pageWidth="827" pageHeight="1169" math="0" shadow="0">
      <root>
        <mxCell id="0" />
        <mxCell id="1" parent="0" />
        <mxCell id="I2e68MIthMgtpRWU_MjU-1" value="" style="ellipse;whiteSpace=wrap;html=1;aspect=fixed;fillColor=none;strokeWidth=2;" parent="1" vertex="1">
          <mxGeometry x="140" y="250" width="700" height="700" as="geometry" />
        </mxCell>
        <mxCell id="I2e68MIthMgtpRWU_MjU-2" value="&lt;font style=&quot;font-size: 18px;&quot;&gt;Sofie&lt;br&gt;(O)&lt;/font&gt;" style="ellipse;whiteSpace=wrap;html=1;aspect=fixed;fillColor=none;strokeWidth=2;" parent="1" vertex="1">
          <mxGeometry x="450" y="560" width="80" height="80" as="geometry" />
        </mxCell>
        <mxCell id="I2e68MIthMgtpRWU_MjU-3" value="" style="endArrow=none;html=1;rounded=0;exitX=0;exitY=0.5;exitDx=0;exitDy=0;strokeWidth=2;" parent="1" source="I2e68MIthMgtpRWU_MjU-2" target="I2e68MIthMgtpRWU_MjU-1" edge="1">
          <mxGeometry width="50" height="50" relative="1" as="geometry">
            <mxPoint x="460" y="610" as="sourcePoint" />
            <mxPoint x="510" y="560" as="targetPoint" />
          </mxGeometry>
        </mxCell>
        <mxCell id="I2e68MIthMgtpRWU_MjU-6" value="" style="endArrow=none;html=1;rounded=0;entryX=1;entryY=0;entryDx=0;entryDy=0;strokeWidth=2;" parent="1" source="I2e68MIthMgtpRWU_MjU-1" target="I2e68MIthMgtpRWU_MjU-2" edge="1">
          <mxGeometry width="50" height="50" relative="1" as="geometry">
            <mxPoint x="363.1999999999999" y="294.6" as="sourcePoint" />
            <mxPoint x="530" y="559.9999999999997" as="targetPoint" />
          </mxGeometry>
        </mxCell>
        <mxCell id="I2e68MIthMgtpRWU_MjU-7" value="" style="endArrow=none;html=1;rounded=0;exitX=1;exitY=1;exitDx=0;exitDy=0;strokeWidth=2;entryX=1;entryY=1;entryDx=0;entryDy=0;" parent="1" source="I2e68MIthMgtpRWU_MjU-2" target="I2e68MIthMgtpRWU_MjU-1" edge="1">
          <mxGeometry width="50" height="50" relative="1" as="geometry">
            <mxPoint x="530" y="610" as="sourcePoint" />
            <mxPoint x="730" y="850" as="targetPoint" />
          </mxGeometry>
        </mxCell>
        <mxCell id="I2e68MIthMgtpRWU_MjU-9" value="&lt;font style=&quot;font-size: 18px;&quot;&gt;HN (Hedersnorm)&lt;/font&gt;" style="text;html=1;align=center;verticalAlign=middle;resizable=0;points=[];autosize=1;strokeColor=none;fillColor=none;" parent="1" vertex="1">
          <mxGeometry x="100" y="320" width="160" height="20" as="geometry" />
        </mxCell>
        <mxCell id="I2e68MIthMgtpRWU_MjU-10" value="&lt;span style=&quot;font-size: 18px;&quot;&gt;GHN (potentiell gärningsperson)&lt;/span&gt;" style="text;html=1;align=center;verticalAlign=middle;resizable=0;points=[];autosize=1;strokeColor=none;fillColor=none;" parent="1" vertex="1">
          <mxGeometry x="790" y="390" width="270" height="20" as="geometry" />
        </mxCell>
        <mxCell id="I2e68MIthMgtpRWU_MjU-12" value="&lt;font style=&quot;font-size: 18px;&quot;&gt;UHN (Utanför hedersnormen)&lt;/font&gt;" style="text;html=1;align=center;verticalAlign=middle;resizable=0;points=[];autosize=1;strokeColor=none;fillColor=none;" parent="1" vertex="1">
          <mxGeometry x="171" y="940" width="250" height="20" as="geometry" />
        </mxCell>
        <mxCell id="I2e68MIthMgtpRWU_MjU-13" value="A9" style="ellipse;whiteSpace=wrap;html=1;aspect=fixed;fontSize=18;fillColor=#ffe6cc;strokeColor=#d79b00;" parent="1" vertex="1">
          <mxGeometry x="440" y="710" width="50" height="50" as="geometry" />
        </mxCell>
        <mxCell id="I2e68MIthMgtpRWU_MjU-14" value="A6" style="ellipse;whiteSpace=wrap;html=1;aspect=fixed;fontSize=18;fillColor=#d5e8d4;strokeColor=#82b366;" parent="1" vertex="1">
          <mxGeometry x="271" y="440" width="50" height="50" as="geometry" />
        </mxCell>
        <mxCell id="I2e68MIthMgtpRWU_MjU-15" value="A5" style="ellipse;whiteSpace=wrap;html=1;aspect=fixed;fontSize=18;fillColor=#d5e8d4;strokeColor=#82b366;" parent="1" vertex="1">
          <mxGeometry x="720" y="460" width="50" height="50" as="geometry" />
        </mxCell>
        <mxCell id="I2e68MIthMgtpRWU_MjU-16" value="A4" style="ellipse;whiteSpace=wrap;html=1;aspect=fixed;fontSize=18;fillColor=#d5e8d4;strokeColor=#82b366;" parent="1" vertex="1">
          <mxGeometry x="470" y="650" width="50" height="50" as="geometry" />
        </mxCell>
        <mxCell id="I2e68MIthMgtpRWU_MjU-17" value="A10" style="ellipse;whiteSpace=wrap;html=1;aspect=fixed;fontSize=18;fillColor=none;" parent="1" vertex="1">
          <mxGeometry x="380" y="680" width="50" height="50" as="geometry" />
        </mxCell>
        <mxCell id="I2e68MIthMgtpRWU_MjU-18" value="A11" style="ellipse;whiteSpace=wrap;html=1;aspect=fixed;fontSize=18;fillColor=none;" parent="1" vertex="1">
          <mxGeometry x="180" y="635" width="50" height="50" as="geometry" />
        </mxCell>
        <mxCell id="I2e68MIthMgtpRWU_MjU-19" value="A3" style="ellipse;whiteSpace=wrap;html=1;aspect=fixed;fontSize=18;fillColor=#d5e8d4;strokeColor=#66CC00;strokeWidth=6;" parent="1" vertex="1">
          <mxGeometry x="440" y="340" width="50" height="50" as="geometry" />
        </mxCell>
        <mxCell id="I2e68MIthMgtpRWU_MjU-20" value="A1" style="ellipse;whiteSpace=wrap;html=1;aspect=fixed;fontSize=18;fillColor=#d5e8d4;strokeColor=#82b366;" parent="1" vertex="1">
          <mxGeometry x="330" y="320" width="50" height="50" as="geometry" />
        </mxCell>
        <mxCell id="I2e68MIthMgtpRWU_MjU-21" value="A7" style="ellipse;whiteSpace=wrap;html=1;aspect=fixed;fontSize=18;fillColor=#d5e8d4;strokeColor=#82b366;" parent="1" vertex="1">
          <mxGeometry x="350" y="390" width="50" height="50" as="geometry" />
        </mxCell>
        <mxCell id="I2e68MIthMgtpRWU_MjU-22" value="A2" style="ellipse;whiteSpace=wrap;html=1;aspect=fixed;fontSize=18;fillColor=#d5e8d4;strokeColor=#82b366;" parent="1" vertex="1">
          <mxGeometry x="720" y="535" width="50" height="50" as="geometry" />
        </mxCell>
        <mxCell id="I2e68MIthMgtpRWU_MjU-23" value="A8" style="ellipse;whiteSpace=wrap;html=1;aspect=fixed;fontSize=18;fillColor=#ffe6cc;strokeColor=#d79b00;" parent="1" vertex="1">
          <mxGeometry x="520" y="700" width="50" height="50" as="geometry" />
        </mxCell>
        <mxCell id="I2e68MIthMgtpRWU_MjU-24" value="A12" style="ellipse;whiteSpace=wrap;html=1;aspect=fixed;fontSize=18;fillColor=none;" parent="1" vertex="1">
          <mxGeometry x="364" y="610" width="50" height="50" as="geometry" />
        </mxCell>
        <mxCell id="I2e68MIthMgtpRWU_MjU-25" value="" style="endArrow=none;html=1;rounded=0;fontSize=18;" parent="1" source="I2e68MIthMgtpRWU_MjU-19" target="I2e68MIthMgtpRWU_MjU-22" edge="1">
          <mxGeometry width="50" height="50" relative="1" as="geometry">
            <mxPoint x="460" y="660" as="sourcePoint" />
            <mxPoint x="510" y="610" as="targetPoint" />
          </mxGeometry>
        </mxCell>
        <mxCell id="I2e68MIthMgtpRWU_MjU-26" value="" style="endArrow=none;html=1;rounded=0;fontSize=18;entryX=0;entryY=0.5;entryDx=0;entryDy=0;exitX=1;exitY=0.5;exitDx=0;exitDy=0;" parent="1" source="I2e68MIthMgtpRWU_MjU-20" target="I2e68MIthMgtpRWU_MjU-19" edge="1">
          <mxGeometry width="50" height="50" relative="1" as="geometry">
            <mxPoint x="402.20153719330244" y="346.59811269517104" as="sourcePoint" />
            <mxPoint x="469.99728553876287" y="303.40855063395543" as="targetPoint" />
          </mxGeometry>
        </mxCell>
        <mxCell id="I2e68MIthMgtpRWU_MjU-27" value="" style="endArrow=none;html=1;rounded=0;fontSize=18;exitX=1;exitY=0.5;exitDx=0;exitDy=0;entryX=0;entryY=0.5;entryDx=0;entryDy=0;" parent="1" source="I2e68MIthMgtpRWU_MjU-19" target="I2e68MIthMgtpRWU_MjU-15" edge="1">
          <mxGeometry width="50" height="50" relative="1" as="geometry">
            <mxPoint x="486.09153719330243" y="411.57811269517106" as="sourcePoint" />
            <mxPoint x="553.8872855387629" y="368.38855063395545" as="targetPoint" />
          </mxGeometry>
        </mxCell>
        <mxCell id="I2e68MIthMgtpRWU_MjU-28" value="" style="endArrow=none;html=1;rounded=0;fontSize=18;exitX=0;exitY=1;exitDx=0;exitDy=0;entryX=1;entryY=0.5;entryDx=0;entryDy=0;" parent="1" source="I2e68MIthMgtpRWU_MjU-22" target="I2e68MIthMgtpRWU_MjU-16" edge="1">
          <mxGeometry width="50" height="50" relative="1" as="geometry">
            <mxPoint x="460" y="660" as="sourcePoint" />
            <mxPoint x="510" y="610" as="targetPoint" />
          </mxGeometry>
        </mxCell>
        <mxCell id="I2e68MIthMgtpRWU_MjU-29" value="" style="endArrow=none;html=1;rounded=0;fontSize=18;exitX=1;exitY=0;exitDx=0;exitDy=0;entryX=0;entryY=0.5;entryDx=0;entryDy=0;" parent="1" source="I2e68MIthMgtpRWU_MjU-14" target="I2e68MIthMgtpRWU_MjU-21" edge="1">
          <mxGeometry width="50" height="50" relative="1" as="geometry">
            <mxPoint x="460" y="660" as="sourcePoint" />
            <mxPoint x="510" y="610" as="targetPoint" />
          </mxGeometry>
        </mxCell>
        <mxCell id="I2e68MIthMgtpRWU_MjU-30" value="" style="endArrow=none;html=1;rounded=0;fontSize=18;exitX=0;exitY=0.5;exitDx=0;exitDy=0;entryX=1;entryY=0.5;entryDx=0;entryDy=0;" parent="1" source="I2e68MIthMgtpRWU_MjU-23" target="I2e68MIthMgtpRWU_MjU-13" edge="1">
          <mxGeometry width="50" height="50" relative="1" as="geometry">
            <mxPoint x="460" y="660" as="sourcePoint" />
            <mxPoint x="510" y="610" as="targetPoint" />
          </mxGeometry>
        </mxCell>
        <mxCell id="I2e68MIthMgtpRWU_MjU-31" value="" style="endArrow=none;html=1;rounded=0;fontSize=18;exitX=0.5;exitY=1;exitDx=0;exitDy=0;entryX=0;entryY=0.5;entryDx=0;entryDy=0;" parent="1" source="I2e68MIthMgtpRWU_MjU-14" target="I2e68MIthMgtpRWU_MjU-16" edge="1">
          <mxGeometry width="50" height="50" relative="1" as="geometry">
            <mxPoint x="460" y="660" as="sourcePoint" />
            <mxPoint x="510" y="610" as="targetPoint" />
          </mxGeometry>
        </mxCell>
        <mxCell id="I2e68MIthMgtpRWU_MjU-32" value="" style="ellipse;whiteSpace=wrap;html=1;aspect=fixed;fontSize=18;strokeColor=#FF0000;strokeWidth=2;fillColor=none;" parent="1" vertex="1">
          <mxGeometry x="327.5" y="437.5" width="325" height="325" as="geometry" />
        </mxCell>
      </root>
    </mxGraphModel>
  </diagram>
  <diagram id="ROJhwfB2lRn42Nhw9xXE" name="Page-4">
    <mxGraphModel dx="1571" dy="514" grid="1" gridSize="10" guides="1" tooltips="1" connect="1" arrows="1" fold="1" page="1" pageScale="1" pageWidth="827" pageHeight="1169" math="0" shadow="0">
      <root>
        <mxCell id="0" />
        <mxCell id="1" parent="0" />
        <mxCell id="17SxInym5KzIQeWQcmFw-1" value="" style="shape=table;startSize=0;container=1;collapsible=0;childLayout=tableLayout;shadow=0;labelBackgroundColor=none;labelBorderColor=default;fontSize=18;fontColor=none;strokeColor=#000000;strokeWidth=1;fillColor=none;noLabel=1;" parent="1" vertex="1">
          <mxGeometry x="120" y="240" width="60" height="479" as="geometry" />
        </mxCell>
        <mxCell id="17SxInym5KzIQeWQcmFw-2" value="" style="shape=tableRow;horizontal=0;startSize=0;swimlaneHead=0;swimlaneBody=0;top=0;left=0;bottom=0;right=0;collapsible=0;dropTarget=0;fillColor=none;points=[[0,0.5],[1,0.5]];portConstraint=eastwest;shadow=1;labelBackgroundColor=none;labelBorderColor=default;fontSize=18;fontColor=#000000;strokeColor=#000000;strokeWidth=1;" parent="17SxInym5KzIQeWQcmFw-1" vertex="1">
          <mxGeometry width="60" height="40" as="geometry" />
        </mxCell>
        <mxCell id="17SxInym5KzIQeWQcmFw-3" value="A1" style="shape=partialRectangle;connectable=0;overflow=hidden;fillColor=none;top=0;left=0;bottom=0;right=0;pointerEvents=1;shadow=1;labelBackgroundColor=none;labelBorderColor=none;fontSize=18;fontColor=#000000;strokeColor=#000000;strokeWidth=1;" parent="17SxInym5KzIQeWQcmFw-2" vertex="1">
          <mxGeometry width="60" height="40" as="geometry">
            <mxRectangle width="60" height="40" as="alternateBounds" />
          </mxGeometry>
        </mxCell>
        <mxCell id="17SxInym5KzIQeWQcmFw-4" value="" style="shape=tableRow;horizontal=0;startSize=0;swimlaneHead=0;swimlaneBody=0;top=0;left=0;bottom=0;right=0;collapsible=0;dropTarget=0;fillColor=none;points=[[0,0.5],[1,0.5]];portConstraint=eastwest;shadow=1;labelBackgroundColor=none;labelBorderColor=default;fontSize=18;fontColor=#000000;strokeColor=#000000;strokeWidth=1;" parent="17SxInym5KzIQeWQcmFw-1" vertex="1">
          <mxGeometry y="40" width="60" height="40" as="geometry" />
        </mxCell>
        <mxCell id="17SxInym5KzIQeWQcmFw-5" value="A2" style="shape=partialRectangle;html=1;whiteSpace=wrap;connectable=0;overflow=hidden;fillColor=none;top=0;left=0;bottom=0;right=0;pointerEvents=1;shadow=1;labelBackgroundColor=none;labelBorderColor=none;fontSize=18;fontColor=#000000;strokeColor=#000000;strokeWidth=1;" parent="17SxInym5KzIQeWQcmFw-4" vertex="1">
          <mxGeometry width="60" height="40" as="geometry">
            <mxRectangle width="60" height="40" as="alternateBounds" />
          </mxGeometry>
        </mxCell>
        <mxCell id="17SxInym5KzIQeWQcmFw-6" value="" style="shape=tableRow;horizontal=0;startSize=0;swimlaneHead=0;swimlaneBody=0;top=0;left=0;bottom=0;right=0;collapsible=0;dropTarget=0;fillColor=none;points=[[0,0.5],[1,0.5]];portConstraint=eastwest;shadow=1;labelBackgroundColor=none;labelBorderColor=default;fontSize=18;fontColor=#000000;strokeColor=#000000;strokeWidth=1;" parent="17SxInym5KzIQeWQcmFw-1" vertex="1">
          <mxGeometry y="80" width="60" height="40" as="geometry" />
        </mxCell>
        <mxCell id="17SxInym5KzIQeWQcmFw-7" value="&lt;span&gt;&lt;b&gt;A3&lt;/b&gt;&lt;/span&gt;" style="shape=partialRectangle;html=1;whiteSpace=wrap;connectable=0;overflow=hidden;fillColor=none;top=0;left=0;bottom=0;right=0;pointerEvents=1;shadow=1;labelBackgroundColor=none;labelBorderColor=none;fontSize=18;fontColor=#000000;strokeColor=#000000;strokeWidth=1;fontStyle=0" parent="17SxInym5KzIQeWQcmFw-6" vertex="1">
          <mxGeometry width="60" height="40" as="geometry">
            <mxRectangle width="60" height="40" as="alternateBounds" />
          </mxGeometry>
        </mxCell>
        <mxCell id="17SxInym5KzIQeWQcmFw-8" value="" style="shape=tableRow;horizontal=0;startSize=0;swimlaneHead=0;swimlaneBody=0;top=0;left=0;bottom=0;right=0;collapsible=0;dropTarget=0;fillColor=none;points=[[0,0.5],[1,0.5]];portConstraint=eastwest;shadow=1;labelBackgroundColor=none;labelBorderColor=default;fontSize=18;fontColor=#000000;strokeColor=#000000;strokeWidth=1;" parent="17SxInym5KzIQeWQcmFw-1" vertex="1">
          <mxGeometry y="120" width="60" height="40" as="geometry" />
        </mxCell>
        <mxCell id="17SxInym5KzIQeWQcmFw-9" value="A4" style="shape=partialRectangle;html=1;whiteSpace=wrap;connectable=0;overflow=hidden;fillColor=none;top=0;left=0;bottom=0;right=0;pointerEvents=1;shadow=1;labelBackgroundColor=none;labelBorderColor=none;fontSize=18;fontColor=#000000;strokeColor=#000000;strokeWidth=1;" parent="17SxInym5KzIQeWQcmFw-8" vertex="1">
          <mxGeometry width="60" height="40" as="geometry">
            <mxRectangle width="60" height="40" as="alternateBounds" />
          </mxGeometry>
        </mxCell>
        <mxCell id="17SxInym5KzIQeWQcmFw-10" value="" style="shape=tableRow;horizontal=0;startSize=0;swimlaneHead=0;swimlaneBody=0;top=0;left=0;bottom=0;right=0;collapsible=0;dropTarget=0;fillColor=none;points=[[0,0.5],[1,0.5]];portConstraint=eastwest;shadow=1;labelBackgroundColor=none;labelBorderColor=default;fontSize=18;fontColor=#000000;strokeColor=#000000;strokeWidth=1;" parent="17SxInym5KzIQeWQcmFw-1" vertex="1">
          <mxGeometry y="160" width="60" height="40" as="geometry" />
        </mxCell>
        <mxCell id="17SxInym5KzIQeWQcmFw-11" value="A5" style="shape=partialRectangle;html=1;whiteSpace=wrap;connectable=0;overflow=hidden;fillColor=none;top=0;left=0;bottom=0;right=0;pointerEvents=1;shadow=1;labelBackgroundColor=none;labelBorderColor=none;fontSize=18;fontColor=#000000;strokeColor=#000000;strokeWidth=1;" parent="17SxInym5KzIQeWQcmFw-10" vertex="1">
          <mxGeometry width="60" height="40" as="geometry">
            <mxRectangle width="60" height="40" as="alternateBounds" />
          </mxGeometry>
        </mxCell>
        <mxCell id="17SxInym5KzIQeWQcmFw-12" value="" style="shape=tableRow;horizontal=0;startSize=0;swimlaneHead=0;swimlaneBody=0;top=0;left=0;bottom=0;right=0;collapsible=0;dropTarget=0;fillColor=none;points=[[0,0.5],[1,0.5]];portConstraint=eastwest;shadow=1;labelBackgroundColor=none;labelBorderColor=default;fontSize=18;fontColor=#000000;strokeColor=#000000;strokeWidth=1;" parent="17SxInym5KzIQeWQcmFw-1" vertex="1">
          <mxGeometry y="200" width="60" height="40" as="geometry" />
        </mxCell>
        <mxCell id="17SxInym5KzIQeWQcmFw-13" value="A6" style="shape=partialRectangle;html=1;whiteSpace=wrap;connectable=0;overflow=hidden;fillColor=none;top=0;left=0;bottom=0;right=0;pointerEvents=1;shadow=1;labelBackgroundColor=none;labelBorderColor=none;fontSize=18;fontColor=#000000;strokeColor=#000000;strokeWidth=1;" parent="17SxInym5KzIQeWQcmFw-12" vertex="1">
          <mxGeometry width="60" height="40" as="geometry">
            <mxRectangle width="60" height="40" as="alternateBounds" />
          </mxGeometry>
        </mxCell>
        <mxCell id="17SxInym5KzIQeWQcmFw-14" value="" style="shape=tableRow;horizontal=0;startSize=0;swimlaneHead=0;swimlaneBody=0;top=0;left=0;bottom=0;right=0;collapsible=0;dropTarget=0;fillColor=none;points=[[0,0.5],[1,0.5]];portConstraint=eastwest;shadow=1;labelBackgroundColor=none;labelBorderColor=default;fontSize=18;fontColor=#000000;strokeColor=#000000;strokeWidth=1;" parent="17SxInym5KzIQeWQcmFw-1" vertex="1">
          <mxGeometry y="240" width="60" height="39" as="geometry" />
        </mxCell>
        <mxCell id="17SxInym5KzIQeWQcmFw-15" value="A7" style="shape=partialRectangle;html=1;whiteSpace=wrap;connectable=0;overflow=hidden;fillColor=none;top=0;left=0;bottom=0;right=0;pointerEvents=1;shadow=1;labelBackgroundColor=none;labelBorderColor=none;fontSize=18;fontColor=#000000;strokeColor=#000000;strokeWidth=1;" parent="17SxInym5KzIQeWQcmFw-14" vertex="1">
          <mxGeometry width="60" height="39" as="geometry">
            <mxRectangle width="60" height="39" as="alternateBounds" />
          </mxGeometry>
        </mxCell>
        <mxCell id="17SxInym5KzIQeWQcmFw-16" value="" style="shape=tableRow;horizontal=0;startSize=0;swimlaneHead=0;swimlaneBody=0;top=0;left=0;bottom=0;right=0;collapsible=0;dropTarget=0;fillColor=none;points=[[0,0.5],[1,0.5]];portConstraint=eastwest;shadow=1;labelBackgroundColor=none;labelBorderColor=default;fontSize=18;fontColor=#000000;strokeColor=#000000;strokeWidth=1;" parent="17SxInym5KzIQeWQcmFw-1" vertex="1">
          <mxGeometry y="279" width="60" height="40" as="geometry" />
        </mxCell>
        <mxCell id="17SxInym5KzIQeWQcmFw-17" value="A8" style="shape=partialRectangle;html=1;whiteSpace=wrap;connectable=0;overflow=hidden;fillColor=none;top=0;left=0;bottom=0;right=0;pointerEvents=1;shadow=1;labelBackgroundColor=none;labelBorderColor=none;fontSize=18;fontColor=#000000;strokeColor=#000000;strokeWidth=1;" parent="17SxInym5KzIQeWQcmFw-16" vertex="1">
          <mxGeometry width="60" height="40" as="geometry">
            <mxRectangle width="60" height="40" as="alternateBounds" />
          </mxGeometry>
        </mxCell>
        <mxCell id="17SxInym5KzIQeWQcmFw-18" value="" style="shape=tableRow;horizontal=0;startSize=0;swimlaneHead=0;swimlaneBody=0;top=0;left=0;bottom=0;right=0;collapsible=0;dropTarget=0;fillColor=none;points=[[0,0.5],[1,0.5]];portConstraint=eastwest;shadow=1;labelBackgroundColor=none;labelBorderColor=default;fontSize=18;fontColor=#000000;strokeColor=#000000;strokeWidth=1;" parent="17SxInym5KzIQeWQcmFw-1" vertex="1">
          <mxGeometry y="319" width="60" height="40" as="geometry" />
        </mxCell>
        <mxCell id="17SxInym5KzIQeWQcmFw-19" value="A9" style="shape=partialRectangle;html=1;whiteSpace=wrap;connectable=0;overflow=hidden;fillColor=none;top=0;left=0;bottom=0;right=0;pointerEvents=1;shadow=1;labelBackgroundColor=none;labelBorderColor=none;fontSize=18;fontColor=#000000;strokeColor=#000000;strokeWidth=1;" parent="17SxInym5KzIQeWQcmFw-18" vertex="1">
          <mxGeometry width="60" height="40" as="geometry">
            <mxRectangle width="60" height="40" as="alternateBounds" />
          </mxGeometry>
        </mxCell>
        <mxCell id="17SxInym5KzIQeWQcmFw-20" value="" style="shape=tableRow;horizontal=0;startSize=0;swimlaneHead=0;swimlaneBody=0;top=0;left=0;bottom=0;right=0;collapsible=0;dropTarget=0;fillColor=none;points=[[0,0.5],[1,0.5]];portConstraint=eastwest;shadow=1;labelBackgroundColor=none;labelBorderColor=default;fontSize=18;fontColor=#000000;strokeColor=#000000;strokeWidth=1;" parent="17SxInym5KzIQeWQcmFw-1" vertex="1">
          <mxGeometry y="359" width="60" height="40" as="geometry" />
        </mxCell>
        <mxCell id="17SxInym5KzIQeWQcmFw-21" value="A10" style="shape=partialRectangle;html=1;whiteSpace=wrap;connectable=0;overflow=hidden;fillColor=none;top=0;left=0;bottom=0;right=0;pointerEvents=1;shadow=1;labelBackgroundColor=none;labelBorderColor=none;fontSize=18;fontColor=#000000;strokeColor=#000000;strokeWidth=1;" parent="17SxInym5KzIQeWQcmFw-20" vertex="1">
          <mxGeometry width="60" height="40" as="geometry">
            <mxRectangle width="60" height="40" as="alternateBounds" />
          </mxGeometry>
        </mxCell>
        <mxCell id="17SxInym5KzIQeWQcmFw-22" value="" style="shape=tableRow;horizontal=0;startSize=0;swimlaneHead=0;swimlaneBody=0;top=0;left=0;bottom=0;right=0;collapsible=0;dropTarget=0;fillColor=none;points=[[0,0.5],[1,0.5]];portConstraint=eastwest;shadow=1;labelBackgroundColor=none;labelBorderColor=default;fontSize=18;fontColor=#000000;strokeColor=#000000;strokeWidth=1;" parent="17SxInym5KzIQeWQcmFw-1" vertex="1">
          <mxGeometry y="399" width="60" height="40" as="geometry" />
        </mxCell>
        <mxCell id="17SxInym5KzIQeWQcmFw-23" value="A11" style="shape=partialRectangle;html=1;whiteSpace=wrap;connectable=0;overflow=hidden;fillColor=none;top=0;left=0;bottom=0;right=0;pointerEvents=1;shadow=1;labelBackgroundColor=none;labelBorderColor=none;fontSize=18;fontColor=#000000;strokeColor=#000000;strokeWidth=1;" parent="17SxInym5KzIQeWQcmFw-22" vertex="1">
          <mxGeometry width="60" height="40" as="geometry">
            <mxRectangle width="60" height="40" as="alternateBounds" />
          </mxGeometry>
        </mxCell>
        <mxCell id="17SxInym5KzIQeWQcmFw-24" value="" style="shape=tableRow;horizontal=0;startSize=0;swimlaneHead=0;swimlaneBody=0;top=0;left=0;bottom=0;right=0;collapsible=0;dropTarget=0;fillColor=none;points=[[0,0.5],[1,0.5]];portConstraint=eastwest;shadow=1;labelBackgroundColor=none;labelBorderColor=default;fontSize=18;fontColor=#000000;strokeColor=#000000;strokeWidth=1;" parent="17SxInym5KzIQeWQcmFw-1" vertex="1">
          <mxGeometry y="439" width="60" height="40" as="geometry" />
        </mxCell>
        <mxCell id="17SxInym5KzIQeWQcmFw-25" value="A12" style="shape=partialRectangle;html=1;whiteSpace=wrap;connectable=0;overflow=hidden;fillColor=none;top=0;left=0;bottom=0;right=0;pointerEvents=1;shadow=1;labelBackgroundColor=none;labelBorderColor=none;fontSize=18;fontColor=#000000;strokeColor=#000000;strokeWidth=1;" parent="17SxInym5KzIQeWQcmFw-24" vertex="1">
          <mxGeometry width="60" height="40" as="geometry">
            <mxRectangle width="60" height="40" as="alternateBounds" />
          </mxGeometry>
        </mxCell>
        <mxCell id="17SxInym5KzIQeWQcmFw-28" value="" style="shape=table;startSize=0;container=1;collapsible=0;childLayout=tableLayout;shadow=0;labelBackgroundColor=none;labelBorderColor=none;fontSize=19;fontColor=none;strokeColor=#000000;strokeWidth=1;fillColor=none;html=0;" parent="1" vertex="1">
          <mxGeometry x="180" y="240" width="60" height="40" as="geometry" />
        </mxCell>
        <mxCell id="17SxInym5KzIQeWQcmFw-29" value="" style="shape=tableRow;horizontal=0;startSize=0;swimlaneHead=0;swimlaneBody=0;top=0;left=0;bottom=0;right=0;collapsible=0;dropTarget=0;fillColor=none;points=[[0,0.5],[1,0.5]];portConstraint=eastwest;shadow=0;labelBackgroundColor=none;labelBorderColor=none;fontSize=19;fontColor=none;strokeColor=#000000;strokeWidth=1;html=0;" parent="17SxInym5KzIQeWQcmFw-28" vertex="1">
          <mxGeometry width="60" height="40" as="geometry" />
        </mxCell>
        <mxCell id="17SxInym5KzIQeWQcmFw-30" value="A3" style="shape=partialRectangle;html=1;whiteSpace=wrap;connectable=0;overflow=hidden;fillColor=none;top=0;left=0;bottom=0;right=0;pointerEvents=1;shadow=0;labelBackgroundColor=none;labelBorderColor=none;fontSize=19;fontColor=#FF0000;strokeColor=#000000;strokeWidth=1;" parent="17SxInym5KzIQeWQcmFw-29" vertex="1">
          <mxGeometry width="60" height="40" as="geometry">
            <mxRectangle width="60" height="40" as="alternateBounds" />
          </mxGeometry>
        </mxCell>
        <mxCell id="17SxInym5KzIQeWQcmFw-31" value="" style="shape=table;startSize=0;container=1;collapsible=0;childLayout=tableLayout;shadow=0;labelBackgroundColor=none;labelBorderColor=none;fontSize=19;fontColor=#FF0000;strokeColor=#000000;strokeWidth=1;fillColor=none;html=0;" parent="1" vertex="1">
          <mxGeometry x="240" y="280" width="60" height="40" as="geometry" />
        </mxCell>
        <mxCell id="17SxInym5KzIQeWQcmFw-32" value="" style="shape=tableRow;horizontal=0;startSize=0;swimlaneHead=0;swimlaneBody=0;top=0;left=0;bottom=0;right=0;collapsible=0;dropTarget=0;fillColor=none;points=[[0,0.5],[1,0.5]];portConstraint=eastwest;shadow=0;labelBackgroundColor=none;labelBorderColor=none;fontSize=19;fontColor=#FF0000;strokeColor=#000000;strokeWidth=1;html=0;" parent="17SxInym5KzIQeWQcmFw-31" vertex="1">
          <mxGeometry width="60" height="40" as="geometry" />
        </mxCell>
        <mxCell id="17SxInym5KzIQeWQcmFw-33" value="A4" style="shape=partialRectangle;html=1;whiteSpace=wrap;connectable=0;overflow=hidden;fillColor=none;top=0;left=0;bottom=0;right=0;pointerEvents=1;shadow=0;labelBackgroundColor=none;labelBorderColor=none;fontSize=19;fontColor=#FF0000;strokeColor=#000000;strokeWidth=1;" parent="17SxInym5KzIQeWQcmFw-32" vertex="1">
          <mxGeometry width="60" height="40" as="geometry">
            <mxRectangle width="60" height="40" as="alternateBounds" />
          </mxGeometry>
        </mxCell>
        <mxCell id="17SxInym5KzIQeWQcmFw-34" value="" style="shape=table;startSize=0;container=1;collapsible=0;childLayout=tableLayout;shadow=0;labelBackgroundColor=none;labelBorderColor=none;fontSize=19;fontColor=#FF0000;strokeColor=#000000;strokeWidth=1;fillColor=none;html=0;" parent="1" vertex="1">
          <mxGeometry x="180" y="280" width="60" height="40" as="geometry" />
        </mxCell>
        <mxCell id="17SxInym5KzIQeWQcmFw-35" value="" style="shape=tableRow;horizontal=0;startSize=0;swimlaneHead=0;swimlaneBody=0;top=0;left=0;bottom=0;right=0;collapsible=0;dropTarget=0;fillColor=none;points=[[0,0.5],[1,0.5]];portConstraint=eastwest;shadow=0;labelBackgroundColor=none;labelBorderColor=none;fontSize=19;fontColor=none;strokeColor=#000000;strokeWidth=1;html=0;" parent="17SxInym5KzIQeWQcmFw-34" vertex="1">
          <mxGeometry width="60" height="40" as="geometry" />
        </mxCell>
        <mxCell id="17SxInym5KzIQeWQcmFw-36" value="A3" style="shape=partialRectangle;html=1;whiteSpace=wrap;connectable=0;overflow=hidden;fillColor=none;top=0;left=0;bottom=0;right=0;pointerEvents=1;shadow=0;labelBackgroundColor=none;labelBorderColor=none;fontSize=19;fontColor=#FF0000;strokeColor=#000000;strokeWidth=1;" parent="17SxInym5KzIQeWQcmFw-35" vertex="1">
          <mxGeometry width="60" height="40" as="geometry">
            <mxRectangle width="60" height="40" as="alternateBounds" />
          </mxGeometry>
        </mxCell>
        <mxCell id="17SxInym5KzIQeWQcmFw-37" value="" style="shape=table;startSize=0;container=1;collapsible=0;childLayout=tableLayout;shadow=0;labelBackgroundColor=none;labelBorderColor=none;fontSize=19;fontColor=#FF0000;strokeColor=#000000;strokeWidth=1;fillColor=none;html=0;" parent="1" vertex="1">
          <mxGeometry x="240" y="320" width="60" height="40" as="geometry" />
        </mxCell>
        <mxCell id="17SxInym5KzIQeWQcmFw-38" value="" style="shape=tableRow;horizontal=0;startSize=0;swimlaneHead=0;swimlaneBody=0;top=0;left=0;bottom=0;right=0;collapsible=0;dropTarget=0;fillColor=none;points=[[0,0.5],[1,0.5]];portConstraint=eastwest;shadow=0;labelBackgroundColor=none;labelBorderColor=none;fontSize=19;fontColor=#FF0000;strokeColor=#000000;strokeWidth=1;html=0;" parent="17SxInym5KzIQeWQcmFw-37" vertex="1">
          <mxGeometry width="60" height="40" as="geometry" />
        </mxCell>
        <mxCell id="17SxInym5KzIQeWQcmFw-39" value="A2" style="shape=partialRectangle;html=1;whiteSpace=wrap;connectable=0;overflow=hidden;fillColor=none;top=0;left=0;bottom=0;right=0;pointerEvents=1;shadow=0;labelBackgroundColor=none;labelBorderColor=none;fontSize=19;fontColor=#FF0000;strokeColor=#000000;strokeWidth=1;" parent="17SxInym5KzIQeWQcmFw-38" vertex="1">
          <mxGeometry width="60" height="40" as="geometry">
            <mxRectangle width="60" height="40" as="alternateBounds" />
          </mxGeometry>
        </mxCell>
        <mxCell id="17SxInym5KzIQeWQcmFw-40" value="" style="shape=table;startSize=0;container=1;collapsible=0;childLayout=tableLayout;shadow=0;labelBackgroundColor=none;labelBorderColor=none;fontSize=19;fontColor=#FF0000;strokeColor=#000000;strokeWidth=1;fillColor=none;html=0;" parent="1" vertex="1">
          <mxGeometry x="300" y="320" width="60" height="40" as="geometry" />
        </mxCell>
        <mxCell id="17SxInym5KzIQeWQcmFw-41" value="" style="shape=tableRow;horizontal=0;startSize=0;swimlaneHead=0;swimlaneBody=0;top=0;left=0;bottom=0;right=0;collapsible=0;dropTarget=0;fillColor=none;points=[[0,0.5],[1,0.5]];portConstraint=eastwest;shadow=0;labelBackgroundColor=none;labelBorderColor=none;fontSize=19;fontColor=#FF0000;strokeColor=#000000;strokeWidth=1;html=0;" parent="17SxInym5KzIQeWQcmFw-40" vertex="1">
          <mxGeometry width="60" height="40" as="geometry" />
        </mxCell>
        <mxCell id="17SxInym5KzIQeWQcmFw-42" value="A5" style="shape=partialRectangle;html=1;whiteSpace=wrap;connectable=0;overflow=hidden;fillColor=none;top=0;left=0;bottom=0;right=0;pointerEvents=1;shadow=0;labelBackgroundColor=none;labelBorderColor=none;fontSize=19;fontColor=#FF0000;strokeColor=#000000;strokeWidth=1;" parent="17SxInym5KzIQeWQcmFw-41" vertex="1">
          <mxGeometry width="60" height="40" as="geometry">
            <mxRectangle width="60" height="40" as="alternateBounds" />
          </mxGeometry>
        </mxCell>
        <mxCell id="17SxInym5KzIQeWQcmFw-43" value="" style="shape=table;startSize=0;container=1;collapsible=0;childLayout=tableLayout;shadow=0;labelBackgroundColor=none;labelBorderColor=none;fontSize=19;fontColor=#FF0000;strokeColor=#000000;strokeWidth=1;fillColor=none;html=0;" parent="1" vertex="1">
          <mxGeometry x="180" y="320" width="60" height="40" as="geometry" />
        </mxCell>
        <mxCell id="17SxInym5KzIQeWQcmFw-44" value="" style="shape=tableRow;horizontal=0;startSize=0;swimlaneHead=0;swimlaneBody=0;top=0;left=0;bottom=0;right=0;collapsible=0;dropTarget=0;fillColor=none;points=[[0,0.5],[1,0.5]];portConstraint=eastwest;shadow=0;labelBackgroundColor=none;labelBorderColor=none;fontSize=19;fontColor=#FF0000;strokeColor=#000000;strokeWidth=1;html=0;" parent="17SxInym5KzIQeWQcmFw-43" vertex="1">
          <mxGeometry width="60" height="40" as="geometry" />
        </mxCell>
        <mxCell id="17SxInym5KzIQeWQcmFw-45" value="A1" style="shape=partialRectangle;html=1;whiteSpace=wrap;connectable=0;overflow=hidden;fillColor=none;top=0;left=0;bottom=0;right=0;pointerEvents=1;shadow=0;labelBackgroundColor=none;labelBorderColor=none;fontSize=19;fontColor=#FF0000;strokeColor=#000000;strokeWidth=1;" parent="17SxInym5KzIQeWQcmFw-44" vertex="1">
          <mxGeometry width="60" height="40" as="geometry">
            <mxRectangle width="60" height="40" as="alternateBounds" />
          </mxGeometry>
        </mxCell>
        <mxCell id="17SxInym5KzIQeWQcmFw-51" value="" style="shape=table;startSize=0;container=1;collapsible=0;childLayout=tableLayout;shadow=0;labelBackgroundColor=none;labelBorderColor=none;fontSize=19;fontColor=#FF0000;strokeColor=#000000;strokeWidth=1;fillColor=none;html=0;" parent="1" vertex="1">
          <mxGeometry x="180" y="400" width="60" height="40" as="geometry" />
        </mxCell>
        <mxCell id="17SxInym5KzIQeWQcmFw-52" value="" style="shape=tableRow;horizontal=0;startSize=0;swimlaneHead=0;swimlaneBody=0;top=0;left=0;bottom=0;right=0;collapsible=0;dropTarget=0;fillColor=none;points=[[0,0.5],[1,0.5]];portConstraint=eastwest;shadow=0;labelBackgroundColor=none;labelBorderColor=none;fontSize=19;fontColor=#FF0000;strokeColor=#000000;strokeWidth=1;html=0;" parent="17SxInym5KzIQeWQcmFw-51" vertex="1">
          <mxGeometry width="60" height="40" as="geometry" />
        </mxCell>
        <mxCell id="17SxInym5KzIQeWQcmFw-53" value="A3" style="shape=partialRectangle;html=1;whiteSpace=wrap;connectable=0;overflow=hidden;fillColor=none;top=0;left=0;bottom=0;right=0;pointerEvents=1;shadow=0;labelBackgroundColor=none;labelBorderColor=none;fontSize=19;fontColor=#FF0000;strokeColor=#000000;strokeWidth=1;" parent="17SxInym5KzIQeWQcmFw-52" vertex="1">
          <mxGeometry width="60" height="40" as="geometry">
            <mxRectangle width="60" height="40" as="alternateBounds" />
          </mxGeometry>
        </mxCell>
        <mxCell id="17SxInym5KzIQeWQcmFw-54" value="" style="shape=table;startSize=0;container=1;collapsible=0;childLayout=tableLayout;shadow=0;labelBackgroundColor=none;labelBorderColor=none;fontSize=19;fontColor=#FF0000;strokeColor=#000000;strokeWidth=1;fillColor=none;html=0;" parent="1" vertex="1">
          <mxGeometry x="240" y="360" width="60" height="40" as="geometry" />
        </mxCell>
        <mxCell id="17SxInym5KzIQeWQcmFw-55" value="" style="shape=tableRow;horizontal=0;startSize=0;swimlaneHead=0;swimlaneBody=0;top=0;left=0;bottom=0;right=0;collapsible=0;dropTarget=0;fillColor=none;points=[[0,0.5],[1,0.5]];portConstraint=eastwest;shadow=0;labelBackgroundColor=none;labelBorderColor=none;fontSize=19;fontColor=#FF0000;strokeColor=#000000;strokeWidth=1;html=0;" parent="17SxInym5KzIQeWQcmFw-54" vertex="1">
          <mxGeometry width="60" height="40" as="geometry" />
        </mxCell>
        <mxCell id="17SxInym5KzIQeWQcmFw-56" value="A6" style="shape=partialRectangle;html=1;whiteSpace=wrap;connectable=0;overflow=hidden;fillColor=none;top=0;left=0;bottom=0;right=0;pointerEvents=1;shadow=0;labelBackgroundColor=none;labelBorderColor=none;fontSize=19;fontColor=#FF0000;strokeColor=#000000;strokeWidth=1;" parent="17SxInym5KzIQeWQcmFw-55" vertex="1">
          <mxGeometry width="60" height="40" as="geometry">
            <mxRectangle width="60" height="40" as="alternateBounds" />
          </mxGeometry>
        </mxCell>
        <mxCell id="17SxInym5KzIQeWQcmFw-57" value="" style="shape=table;startSize=0;container=1;collapsible=0;childLayout=tableLayout;shadow=0;labelBackgroundColor=none;labelBorderColor=none;fontSize=19;fontColor=#FF0000;strokeColor=#000000;strokeWidth=1;fillColor=none;html=0;" parent="1" vertex="1">
          <mxGeometry x="180" y="360" width="60" height="40" as="geometry" />
        </mxCell>
        <mxCell id="17SxInym5KzIQeWQcmFw-58" value="" style="shape=tableRow;horizontal=0;startSize=0;swimlaneHead=0;swimlaneBody=0;top=0;left=0;bottom=0;right=0;collapsible=0;dropTarget=0;fillColor=none;points=[[0,0.5],[1,0.5]];portConstraint=eastwest;shadow=0;labelBackgroundColor=none;labelBorderColor=none;fontSize=19;fontColor=#FF0000;strokeColor=#000000;strokeWidth=1;html=0;" parent="17SxInym5KzIQeWQcmFw-57" vertex="1">
          <mxGeometry width="60" height="40" as="geometry" />
        </mxCell>
        <mxCell id="17SxInym5KzIQeWQcmFw-59" value="A2" style="shape=partialRectangle;html=1;whiteSpace=wrap;connectable=0;overflow=hidden;fillColor=none;top=0;left=0;bottom=0;right=0;pointerEvents=1;shadow=0;labelBackgroundColor=none;labelBorderColor=none;fontSize=19;fontColor=#FF0000;strokeColor=#000000;strokeWidth=1;" parent="17SxInym5KzIQeWQcmFw-58" vertex="1">
          <mxGeometry width="60" height="40" as="geometry">
            <mxRectangle width="60" height="40" as="alternateBounds" />
          </mxGeometry>
        </mxCell>
        <mxCell id="17SxInym5KzIQeWQcmFw-60" value="" style="shape=table;startSize=0;container=1;collapsible=0;childLayout=tableLayout;shadow=0;labelBackgroundColor=none;labelBorderColor=none;fontSize=19;fontColor=#FF0000;strokeColor=#000000;strokeWidth=1;fillColor=none;html=0;" parent="1" vertex="1">
          <mxGeometry x="240" y="440" width="60" height="40" as="geometry" />
        </mxCell>
        <mxCell id="17SxInym5KzIQeWQcmFw-61" value="" style="shape=tableRow;horizontal=0;startSize=0;swimlaneHead=0;swimlaneBody=0;top=0;left=0;bottom=0;right=0;collapsible=0;dropTarget=0;fillColor=none;points=[[0,0.5],[1,0.5]];portConstraint=eastwest;shadow=0;labelBackgroundColor=none;labelBorderColor=none;fontSize=19;fontColor=#FF0000;strokeColor=#000000;strokeWidth=1;html=0;" parent="17SxInym5KzIQeWQcmFw-60" vertex="1">
          <mxGeometry width="60" height="40" as="geometry" />
        </mxCell>
        <mxCell id="17SxInym5KzIQeWQcmFw-62" value="A7" style="shape=partialRectangle;html=1;whiteSpace=wrap;connectable=0;overflow=hidden;fillColor=none;top=0;left=0;bottom=0;right=0;pointerEvents=1;shadow=0;labelBackgroundColor=none;labelBorderColor=none;fontSize=19;fontColor=#FF0000;strokeColor=#000000;strokeWidth=1;" parent="17SxInym5KzIQeWQcmFw-61" vertex="1">
          <mxGeometry width="60" height="40" as="geometry">
            <mxRectangle width="60" height="40" as="alternateBounds" />
          </mxGeometry>
        </mxCell>
        <mxCell id="17SxInym5KzIQeWQcmFw-66" value="" style="shape=table;startSize=0;container=1;collapsible=0;childLayout=tableLayout;shadow=0;labelBackgroundColor=none;labelBorderColor=none;fontSize=19;fontColor=#FF0000;strokeColor=#000000;strokeWidth=1;fillColor=none;html=0;" parent="1" vertex="1">
          <mxGeometry x="180" y="559" width="60" height="40" as="geometry" />
        </mxCell>
        <mxCell id="17SxInym5KzIQeWQcmFw-67" value="" style="shape=tableRow;horizontal=0;startSize=0;swimlaneHead=0;swimlaneBody=0;top=0;left=0;bottom=0;right=0;collapsible=0;dropTarget=0;fillColor=none;points=[[0,0.5],[1,0.5]];portConstraint=eastwest;shadow=0;labelBackgroundColor=none;labelBorderColor=none;fontSize=19;fontColor=#FF0000;strokeColor=#000000;strokeWidth=1;html=0;" parent="17SxInym5KzIQeWQcmFw-66" vertex="1">
          <mxGeometry width="60" height="40" as="geometry" />
        </mxCell>
        <mxCell id="17SxInym5KzIQeWQcmFw-68" value="A8" style="shape=partialRectangle;html=1;whiteSpace=wrap;connectable=0;overflow=hidden;fillColor=none;top=0;left=0;bottom=0;right=0;pointerEvents=1;shadow=0;labelBackgroundColor=none;labelBorderColor=none;fontSize=19;fontColor=#FF0000;strokeColor=#000000;strokeWidth=1;" parent="17SxInym5KzIQeWQcmFw-67" vertex="1">
          <mxGeometry width="60" height="40" as="geometry">
            <mxRectangle width="60" height="40" as="alternateBounds" />
          </mxGeometry>
        </mxCell>
        <mxCell id="17SxInym5KzIQeWQcmFw-69" value="" style="shape=table;startSize=0;container=1;collapsible=0;childLayout=tableLayout;shadow=0;labelBackgroundColor=none;labelBorderColor=none;fontSize=19;fontColor=#FF0000;strokeColor=#000000;strokeWidth=1;fillColor=none;html=0;" parent="1" vertex="1">
          <mxGeometry x="180" y="519" width="60" height="40" as="geometry" />
        </mxCell>
        <mxCell id="17SxInym5KzIQeWQcmFw-70" value="" style="shape=tableRow;horizontal=0;startSize=0;swimlaneHead=0;swimlaneBody=0;top=0;left=0;bottom=0;right=0;collapsible=0;dropTarget=0;fillColor=none;points=[[0,0.5],[1,0.5]];portConstraint=eastwest;shadow=0;labelBackgroundColor=none;labelBorderColor=none;fontSize=19;fontColor=#FF0000;strokeColor=#000000;strokeWidth=1;html=0;" parent="17SxInym5KzIQeWQcmFw-69" vertex="1">
          <mxGeometry width="60" height="40" as="geometry" />
        </mxCell>
        <mxCell id="17SxInym5KzIQeWQcmFw-71" value="A9" style="shape=partialRectangle;html=1;whiteSpace=wrap;connectable=0;overflow=hidden;fillColor=none;top=0;left=0;bottom=0;right=0;pointerEvents=1;shadow=0;labelBackgroundColor=none;labelBorderColor=none;fontSize=19;fontColor=#FF0000;strokeColor=#000000;strokeWidth=1;" parent="17SxInym5KzIQeWQcmFw-70" vertex="1">
          <mxGeometry width="60" height="40" as="geometry">
            <mxRectangle width="60" height="40" as="alternateBounds" />
          </mxGeometry>
        </mxCell>
        <mxCell id="17SxInym5KzIQeWQcmFw-75" value="" style="shape=table;startSize=0;container=1;collapsible=0;childLayout=tableLayout;shadow=0;labelBackgroundColor=none;labelBorderColor=none;fontSize=19;fontColor=#FF0000;strokeColor=#000000;strokeWidth=1;fillColor=none;html=0;" parent="1" vertex="1">
          <mxGeometry x="180" y="480" width="60" height="40" as="geometry" />
        </mxCell>
        <mxCell id="17SxInym5KzIQeWQcmFw-76" value="" style="shape=tableRow;horizontal=0;startSize=0;swimlaneHead=0;swimlaneBody=0;top=0;left=0;bottom=0;right=0;collapsible=0;dropTarget=0;fillColor=none;points=[[0,0.5],[1,0.5]];portConstraint=eastwest;shadow=0;labelBackgroundColor=none;labelBorderColor=none;fontSize=19;fontColor=#FF0000;strokeColor=#000000;strokeWidth=1;html=0;" parent="17SxInym5KzIQeWQcmFw-75" vertex="1">
          <mxGeometry width="60" height="40" as="geometry" />
        </mxCell>
        <mxCell id="17SxInym5KzIQeWQcmFw-77" value="A6" style="shape=partialRectangle;html=1;whiteSpace=wrap;connectable=0;overflow=hidden;fillColor=none;top=0;left=0;bottom=0;right=0;pointerEvents=1;shadow=0;labelBackgroundColor=none;labelBorderColor=none;fontSize=19;fontColor=#FF0000;strokeColor=#000000;strokeWidth=1;" parent="17SxInym5KzIQeWQcmFw-76" vertex="1">
          <mxGeometry width="60" height="40" as="geometry">
            <mxRectangle width="60" height="40" as="alternateBounds" />
          </mxGeometry>
        </mxCell>
        <mxCell id="17SxInym5KzIQeWQcmFw-78" value="" style="shape=table;startSize=0;container=1;collapsible=0;childLayout=tableLayout;shadow=0;labelBackgroundColor=none;labelBorderColor=none;fontSize=19;fontColor=#FF0000;strokeColor=#000000;strokeWidth=1;fillColor=none;html=0;" parent="1" vertex="1">
          <mxGeometry x="180" y="440" width="60" height="40" as="geometry" />
        </mxCell>
        <mxCell id="17SxInym5KzIQeWQcmFw-79" value="" style="shape=tableRow;horizontal=0;startSize=0;swimlaneHead=0;swimlaneBody=0;top=0;left=0;bottom=0;right=0;collapsible=0;dropTarget=0;fillColor=none;points=[[0,0.5],[1,0.5]];portConstraint=eastwest;shadow=0;labelBackgroundColor=none;labelBorderColor=none;fontSize=19;fontColor=#FF0000;strokeColor=#000000;strokeWidth=1;html=0;" parent="17SxInym5KzIQeWQcmFw-78" vertex="1">
          <mxGeometry width="60" height="40" as="geometry" />
        </mxCell>
        <mxCell id="17SxInym5KzIQeWQcmFw-80" value="A4" style="shape=partialRectangle;html=1;whiteSpace=wrap;connectable=0;overflow=hidden;fillColor=none;top=0;left=0;bottom=0;right=0;pointerEvents=1;shadow=0;labelBackgroundColor=none;labelBorderColor=none;fontSize=19;fontColor=#FF0000;strokeColor=#000000;strokeWidth=1;" parent="17SxInym5KzIQeWQcmFw-79" vertex="1">
          <mxGeometry width="60" height="40" as="geometry">
            <mxRectangle width="60" height="40" as="alternateBounds" />
          </mxGeometry>
        </mxCell>
        <mxCell id="17SxInym5KzIQeWQcmFw-83" value="" style="shape=curlyBracket;whiteSpace=wrap;html=1;rounded=1;shadow=0;labelBackgroundColor=none;labelBorderColor=none;fontSize=19;fontColor=#FF0000;strokeColor=default;strokeWidth=1;fillColor=none;rotation=0;direction=south;" parent="1" vertex="1">
          <mxGeometry x="180" y="180" width="190" height="30" as="geometry" />
        </mxCell>
        <mxCell id="17SxInym5KzIQeWQcmFw-84" value="&lt;font style=&quot;font-size: 12px;&quot; color=&quot;#000000&quot;&gt;Noderna som är länkade&lt;/font&gt;" style="text;html=1;align=center;verticalAlign=middle;resizable=0;points=[];autosize=1;strokeColor=none;fillColor=none;fontSize=19;fontColor=#FF0000;" parent="1" vertex="1">
          <mxGeometry x="210" y="150" width="150" height="30" as="geometry" />
        </mxCell>
        <mxCell id="17SxInym5KzIQeWQcmFw-86" value="" style="edgeStyle=segmentEdgeStyle;endArrow=classic;html=1;rounded=0;fontSize=12;fontColor=#000000;strokeWidth=1;" parent="1" edge="1">
          <mxGeometry width="50" height="50" relative="1" as="geometry">
            <mxPoint x="150" y="210" as="sourcePoint" />
            <mxPoint x="100" y="170" as="targetPoint" />
            <Array as="points">
              <mxPoint x="150" y="170" />
            </Array>
          </mxGeometry>
        </mxCell>
        <mxCell id="17SxInym5KzIQeWQcmFw-87" value="Noden som granskas" style="text;html=1;align=center;verticalAlign=middle;resizable=0;points=[];autosize=1;strokeColor=none;fillColor=none;fontSize=12;fontColor=#000000;" parent="1" vertex="1">
          <mxGeometry x="-40" y="160" width="130" height="20" as="geometry" />
        </mxCell>
      </root>
    </mxGraphModel>
  </diagram>
  <diagram id="oyribP2oo5hclq56gfIU" name="Page-5">
    <mxGraphModel dx="744" dy="514" grid="1" gridSize="10" guides="1" tooltips="1" connect="1" arrows="1" fold="1" page="1" pageScale="1" pageWidth="827" pageHeight="1169" math="0" shadow="0">
      <root>
        <mxCell id="0" />
        <mxCell id="1" parent="0" />
        <mxCell id="hGk20zbqZkm8_NB-efj_-2" value="&lt;font style=&quot;font-size: 14px;&quot;&gt;Alter&lt;/font&gt;" style="rounded=0;whiteSpace=wrap;html=1;fillColor=none;" vertex="1" parent="1">
          <mxGeometry x="210" y="160" width="80" height="40" as="geometry" />
        </mxCell>
        <mxCell id="hGk20zbqZkm8_NB-efj_-3" value="&lt;font style=&quot;font-size: 14px;&quot;&gt;Ego&lt;/font&gt;" style="rounded=0;whiteSpace=wrap;html=1;fillColor=none;" vertex="1" parent="1">
          <mxGeometry x="210" y="80" width="80" height="40" as="geometry" />
        </mxCell>
        <mxCell id="hGk20zbqZkm8_NB-efj_-4" value="&lt;font style=&quot;font-size: 14px;&quot;&gt;Nod&lt;/font&gt;" style="rounded=0;whiteSpace=wrap;html=1;fillColor=none;" vertex="1" parent="1">
          <mxGeometry x="60" y="120" width="80" height="40" as="geometry" />
        </mxCell>
        <mxCell id="hGk20zbqZkm8_NB-efj_-5" value="" style="endArrow=classic;html=1;rounded=0;fontSize=14;" edge="1" parent="1">
          <mxGeometry width="50" height="50" relative="1" as="geometry">
            <mxPoint x="150" y="130" as="sourcePoint" />
            <mxPoint x="200" y="100" as="targetPoint" />
            <Array as="points">
              <mxPoint x="180" y="130" />
              <mxPoint x="180" y="100" />
            </Array>
          </mxGeometry>
        </mxCell>
        <mxCell id="hGk20zbqZkm8_NB-efj_-6" value="" style="endArrow=classic;html=1;rounded=0;fontSize=14;" edge="1" parent="1">
          <mxGeometry width="50" height="50" relative="1" as="geometry">
            <mxPoint x="150" y="150" as="sourcePoint" />
            <mxPoint x="200" y="180" as="targetPoint" />
            <Array as="points">
              <mxPoint x="180" y="150" />
              <mxPoint x="180" y="180" />
            </Array>
          </mxGeometry>
        </mxCell>
        <mxCell id="hGk20zbqZkm8_NB-efj_-9" value="ID, namn, ålder, kön, &lt;u&gt;fält&lt;/u&gt;, &lt;u&gt;roll&lt;/u&gt;, tillit" style="text;html=1;align=center;verticalAlign=middle;resizable=0;points=[];autosize=1;strokeColor=none;fillColor=none;fontSize=14;" vertex="1" parent="1">
          <mxGeometry x="390" y="130" width="220" height="20" as="geometry" />
        </mxCell>
        <mxCell id="hGk20zbqZkm8_NB-efj_-10" value="" style="endArrow=classic;html=1;rounded=0;fontSize=14;" edge="1" parent="1">
          <mxGeometry width="50" height="50" relative="1" as="geometry">
            <mxPoint x="300" y="100" as="sourcePoint" />
            <mxPoint x="380" y="140" as="targetPoint" />
            <Array as="points">
              <mxPoint x="330" y="100" />
              <mxPoint x="330" y="140" />
            </Array>
          </mxGeometry>
        </mxCell>
        <mxCell id="hGk20zbqZkm8_NB-efj_-11" value="" style="endArrow=classic;html=1;rounded=0;fontSize=14;" edge="1" parent="1">
          <mxGeometry width="50" height="50" relative="1" as="geometry">
            <mxPoint x="300" y="180" as="sourcePoint" />
            <mxPoint x="380" y="140" as="targetPoint" />
            <Array as="points">
              <mxPoint x="330" y="180" />
              <mxPoint x="330" y="140" />
            </Array>
          </mxGeometry>
        </mxCell>
        <mxCell id="hGk20zbqZkm8_NB-efj_-12" value="&lt;font style=&quot;font-size: 14px;&quot;&gt;Rubrik&lt;/font&gt;" style="rounded=0;whiteSpace=wrap;html=1;fillColor=none;" vertex="1" parent="1">
          <mxGeometry x="230" y="240" width="80" height="40" as="geometry" />
        </mxCell>
        <mxCell id="hGk20zbqZkm8_NB-efj_-13" value="" style="endArrow=classic;html=1;rounded=0;fontSize=14;" edge="1" parent="1">
          <mxGeometry width="50" height="50" relative="1" as="geometry">
            <mxPoint x="330" y="259.5" as="sourcePoint" />
            <mxPoint x="380" y="259.5" as="targetPoint" />
          </mxGeometry>
        </mxCell>
        <mxCell id="hGk20zbqZkm8_NB-efj_-15" value="Familj, släkt, job/skola, yrkeshjälp/myndighet, vän/granne/övrigt" style="text;html=1;align=center;verticalAlign=middle;resizable=0;points=[];autosize=1;strokeColor=none;fillColor=none;fontSize=14;" vertex="1" parent="1">
          <mxGeometry x="390" y="250" width="410" height="20" as="geometry" />
        </mxCell>
      </root>
    </mxGraphModel>
  </diagram>
</mxfile>
